<svg id="visual" viewBox="0 0 960 540" width="960" height="540" xmlns="http://www.w3.org/2000/svg" xmlns:xlink="http://www.w3.org/1999/xlink" version="1.1"><rect x="0" y="0" width="960" height="540" fill="#0a192f"></rect><path d="M0 178L192 103L384 241L576 132L768 275L960 58L960 541L768 541L576 541L384 541L192 541L0 541Z" fill="#733808"></path><path d="M0 128L192 283L384 190L576 255L768 273L960 163L960 541L768 541L576 541L384 541L192 541L0 541Z" fill="#652d0e"></path><path d="M0 386L192 307L384 344L576 404L768 394L960 245L960 541L768 541L576 541L384 541L192 541L0 541Z" fill="#562411"></path><path d="M0 361L192 355L384 343L576 455L768 443L960 306L960 541L768 541L576 541L384 541L192 541L0 541Z" fill="#461c11"></path><path d="M0 511L192 439L384 490L576 410L768 433L960 466L960 541L768 541L576 541L384 541L192 541L0 541Z" fill="#35150f"></path></svg>